<mxfile host="app.diagrams.net" modified="2024-01-31T11:59:28.123Z" agent="Mozilla/5.0 (Windows NT 10.0; Win64; x64) AppleWebKit/537.36 (KHTML, like Gecko) Chrome/119.0.0.0 Safari/537.36 OPR/105.0.0.0" version="23.0.2" etag="u4D0gDnNY77CAg3N66NN" type="github">
  <diagram name="PÃ¡gina-1" id="M1ktqKr8DjvPB6sQfF6H">
    <mxGraphModel>
      <root>
        <mxCell id="0" />
        <mxCell id="1" parent="0" />
      </root>
    </mxGraphModel>
  </diagram>
</mxfile>
